<?xml version="1.0" standalone="no"?>
<!DOCTYPE svg PUBLIC "-//W3C//DTD SVG 20010904//EN"
 "http://www.w3.org/TR/2001/REC-SVG-20010904/DTD/svg10.dtd">
<svg version="1.0" xmlns="http://www.w3.org/2000/svg"
 width="1024.000000pt" height="1024.000000pt" viewBox="0 0 1024.000000 1024.000000"
 preserveAspectRatio="xMidYMid meet">
<metadata>
Created by potrace 1.11, written by Peter Selinger 2001-2013
</metadata>
<g transform="translate(0.000000,1024.000000) scale(0.100000,-0.100000)"
fill="#000000" stroke="none">
<path d="M4368 8610 c-2 -4 -64 -54 -138 -111 -74 -56 -149 -114 -165 -128
-17 -14 -51 -42 -75 -61 -272 -216 -576 -512 -800 -779 -252 -300 -449 -658
-526 -954 -31 -121 -52 -259 -53 -354 l-1 -41 -122 -60 c-420 -206 -649 -475
-712 -834 -22 -121 -15 -328 14 -443 71 -285 225 -453 587 -638 76 -39 251
-113 288 -122 6 -1 17 -5 25 -8 18 -7 179 -43 230 -51 150 -25 210 -27 703
-26 246 1 447 -1 447 -4 0 -2 -34 -64 -75 -137 -41 -72 -75 -133 -75 -134 0
-2 -31 -56 -68 -121 -38 -66 -81 -143 -97 -172 l-29 -53 -50 6 c-28 3 -69 8
-91 10 -22 3 -60 7 -85 10 -392 43 -838 39 -1002 -11 -9 -3 -25 -7 -35 -9
-160 -32 -420 -161 -578 -286 -206 -162 -315 -375 -316 -616 -1 -332 147 -567
445 -707 64 -30 178 -73 216 -81 8 -2 42 -10 75 -19 33 -8 80 -18 105 -21 24
-4 47 -8 50 -10 14 -9 189 -19 320 -18 133 0 239 6 326 18 19 3 51 7 72 10
167 24 397 78 617 147 119 37 409 142 480 174 17 7 91 40 165 72 74 33 192 87
262 121 l127 61 48 -28 c26 -16 116 -57 198 -93 83 -35 188 -85 235 -110 145
-79 387 -168 576 -211 58 -13 29 -24 324 130 278 145 624 340 717 403 23 16
44 29 47 29 3 0 25 13 48 29 24 16 93 61 153 101 171 113 268 184 420 306 191
154 282 238 430 396 113 121 123 133 206 245 212 284 356 593 405 873 3 14 7
32 9 40 2 8 7 44 10 80 4 36 9 76 11 90 5 32 5 265 0 305 -13 98 -20 151 -21
155 -1 3 -5 25 -9 50 -26 148 -111 349 -209 492 -251 370 -669 631 -1227 766
-69 17 -141 33 -160 36 -50 8 -92 16 -115 21 -11 2 -42 7 -70 10 -27 3 -63 8
-80 10 -42 5 -129 14 -205 21 -36 4 -238 8 -450 10 -212 2 -386 4 -388 4 -2 0
5 15 16 33 11 17 31 52 44 77 14 25 54 97 90 160 36 63 75 131 85 150 11 19
36 62 55 95 20 33 46 80 60 105 21 38 71 126 175 310 11 19 98 172 193 340
175 307 312 548 358 629 15 26 21 46 15 50 -6 3 -47 30 -92 60 -45 30 -83 52
-86 50 -4 -4 -212 -369 -267 -469 -17 -30 -32 -56 -33 -57 -2 -3 -136 43 -480
165 -77 28 -264 93 -415 146 -151 54 -297 105 -325 116 -45 17 -153 55 -510
180 -66 23 -148 53 -182 65 -34 13 -63 20 -65 15z m-113 -874 c75 -4 248 -31
330 -50 11 -2 40 -9 65 -15 223 -51 588 -184 892 -325 123 -57 342 -167 352
-176 8 -8 -111 -225 -262 -480 -12 -19 -36 -62 -55 -95 -101 -182 -134 -235
-145 -236 -4 0 -16 -2 -27 -3 -11 -2 -49 -6 -85 -10 -36 -4 -72 -9 -80 -11 -8
-2 -46 -6 -83 -10 -37 -3 -76 -8 -85 -10 -9 -1 -49 -6 -89 -10 -40 -4 -85 -8
-100 -10 -136 -17 -853 -27 -950 -12 -243 34 -443 123 -542 241 -14 15 -30 33
-35 40 -22 22 -74 132 -91 191 -19 62 -27 279 -13 340 4 17 9 39 11 50 24 101
101 231 191 321 149 148 314 233 517 267 73 12 118 13 284 3z m-1605 -1770 c0
-23 80 -167 125 -226 102 -133 248 -227 394 -255 13 -2 30 -6 39 -9 9 -3 33
-8 52 -11 19 -3 46 -7 60 -10 38 -7 118 -15 190 -20 74 -6 517 -6 630 -1 108
5 267 15 325 21 28 3 77 7 110 10 81 8 153 15 195 20 19 2 59 7 89 10 30 4 62
8 73 10 10 2 18 2 18 -1 0 -3 -43 -83 -96 -177 -53 -95 -133 -236 -176 -314
-44 -79 -83 -145 -87 -147 -3 -3 -58 -7 -121 -11 -63 -4 -133 -8 -155 -10
-227 -19 -990 -27 -1125 -13 -281 31 -522 136 -666 291 -73 78 -108 142 -135
244 -53 208 14 408 188 562 61 54 73 60 73 37z m3900 -410 c146 -21 195 -30
284 -52 200 -50 374 -122 536 -224 356 -223 552 -510 601 -879 11 -83 7 -314
-6 -391 -64 -366 -268 -716 -615 -1059 -145 -143 -368 -325 -538 -440 l-64
-43 -61 27 c-34 15 -75 33 -92 40 -58 26 -301 123 -429 173 l-129 50 44 25
c24 13 85 47 134 74 429 236 660 392 853 577 250 239 372 473 377 722 8 360
-194 602 -626 748 -282 96 -590 121 -979 81 -19 -2 -68 -6 -108 -9 -41 -4 -90
-8 -110 -11 -20 -2 -64 -7 -97 -10 -32 -3 -75 -9 -95 -14 -37 -10 -76 -16
-180 -26 -36 -4 -76 -9 -90 -11 -30 -5 -291 -6 -296 -2 -2 3 206 368 261 458
9 14 34 58 56 98 40 71 41 72 82 73 23 0 49 2 57 4 21 4 218 15 380 21 74 3
136 6 137 7 5 6 672 -1 713 -7z m-270 -1416 c112 -33 213 -103 270 -185 92
-134 62 -343 -72 -500 -24 -27 -142 -122 -263 -212 -121 -89 -224 -166 -230
-170 -20 -17 -172 -120 -235 -160 l-65 -42 -135 45 c-251 83 -619 190 -752
218 -13 3 -57 14 -98 25 -111 29 -320 82 -339 86 -14 4 -364 93 -384 98 -4 1
21 49 54 107 34 58 70 120 80 138 36 61 57 97 124 212 37 63 79 134 92 158 20
34 30 42 54 42 38 0 32 -1 86 15 59 17 90 23 173 30 36 3 81 7 100 10 50 6
127 15 186 20 48 4 112 11 179 20 17 2 62 7 100 10 39 4 81 8 95 10 14 2 54 6
90 10 67 6 98 10 185 20 100 11 173 16 335 21 91 3 169 7 174 8 20 5 133 -15
196 -34z m-3275 -1474 c50 -4 106 -9 126 -12 20 -2 56 -7 80 -9 61 -6 223 -31
334 -51 88 -15 326 -70 440 -101 231 -61 514 -149 528 -162 14 -13 -277 -148
-518 -241 -11 -4 -38 -15 -60 -23 -136 -54 -466 -143 -660 -177 -126 -23 -147
-26 -235 -36 -30 -3 -68 -7 -85 -10 -87 -11 -334 -15 -432 -5 -236 22 -395
108 -462 250 -23 50 -26 68 -26 166 0 123 14 164 79 228 88 88 290 166 474
183 37 4 68 7 69 8 5 4 266 -2 348 -8z"/>
</g>
</svg>
